<svg id="Layer_1" enable-background="new 0 0 512 512" height="512" viewBox="0 0 512 512" width="512" xmlns="http://www.w3.org/2000/svg"><g><path d="m157.01 30c-4.142 0-7.5 3.358-7.5 7.5s3.358 7.5 7.5 7.5 7.5-3.358 7.5-7.5-3.358-7.5-7.5-7.5zm30 0c-4.142 0-7.5 3.358-7.5 7.5s3.358 7.5 7.5 7.5 7.5-3.358 7.5-7.5-3.358-7.5-7.5-7.5zm-60 0c-4.142 0-7.5 3.358-7.5 7.5s3.358 7.5 7.5 7.5 7.5-3.358 7.5-7.5-3.358-7.5-7.5-7.5zm354.182 0h-58.702v-10.5c0-10.752-8.748-19.5-19.5-19.5h-293.98c-10.752 0-19.5 8.748-19.5 19.5v23.54h-52.01c-20.678 0-37.5 16.822-37.5 37.5v282.42c0 20.678 16.822 37.5 37.5 37.5h175.384l-5.712 42.455h-8.357c-6.941 0-13.083 4.671-14.937 11.357l-10.562 38.085c-1.307 4.707-.359 9.637 2.597 13.525s7.454 6.118 12.339 6.118h135.496c4.885 0 9.383-2.23 12.339-6.118s3.903-8.818 2.598-13.524l-10.563-38.084c-1.854-6.688-7.995-11.359-14.937-11.359h-8.357l-5.712-42.455h175.384c20.678 0 37.5-16.822 37.5-37.5v-302.153c0-16.987-13.82-30.807-30.808-30.807zm-376.682 45h121.49c4.143 0 7.5-3.358 7.5-7.5s-3.357-7.5-7.5-7.5h-121.49v-40.5c0-2.481 2.019-4.5 4.5-4.5h293.98c2.481 0 4.5 2.019 4.5 4.5v10.5h-49.438c-16.717 0-30.355 13.385-30.786 30h-66.266c-4.143 0-7.5 3.358-7.5 7.5s3.357 7.5 7.5 7.5h66.245v38.937c0 16.987 13.819 30.807 30.807 30.807h14.861v14.391c0 4.305 2.57 8.152 6.548 9.8 3.937 1.631 8.499.763 11.562-2.299l16.468-16.468v117.062c0 4.142 3.357 7.5 7.5 7.5s7.5-3.358 7.5-7.5v-122.486h44.509v195.716h-44.51v-38.23c0-4.142-3.357-7.5-7.5-7.5s-7.5 3.358-7.5 7.5v38.229h-58.89v-44.359c0-20.313-12.214-38.24-31.113-45.669l-20.262-7.971c-5.178-2.036-8.524-6.947-8.524-12.51v-8.477c12.592-9.781 20.718-25.052 20.718-42.195v-56.002c0-17.382-14.142-31.523-31.523-31.523h-43.789c-17.382 0-31.523 14.142-31.523 31.523v56.002c0 17.142 8.126 32.414 20.718 42.195v8.477c0 5.563-3.347 10.474-8.526 12.51l-20.258 7.97c-18.901 7.43-31.115 25.357-31.115 45.67v44.36h-58.893zm191.59 237.22c-4.143 0-7.5 3.358-7.5 7.5v20.74h-65.2v-20.74c0-4.142-3.357-7.5-7.5-7.5s-7.5 3.358-7.5 7.5v20.74h-30v-44.36c0-14.104 8.479-26.551 21.605-31.71l18.449-7.258c9.991 9.799 23.381 15.325 37.545 15.325s27.554-5.526 37.545-15.325l18.451 7.258c13.124 5.159 21.604 17.606 21.604 31.71v44.36h-30v-20.74c.001-4.142-3.357-7.5-7.499-7.5zm-72.899-144.369c10.545 0 20.972-1.77 30.726-5.258 5.647-2.02 11.099-4.613 16.263-7.735 2.696 3.038 6.434 6.252 11.459 8.679 4.561 2.203 8.979 3.157 12.77 3.484v12.258c0 21.184-17.234 38.418-38.418 38.418s-38.418-17.234-38.418-38.418v-11.611c1.874.111 3.748.183 5.618.183zm-5.619-15.207v-29.368c0-9.111 7.412-16.523 16.523-16.523h43.789c9.111 0 16.523 7.413 16.523 16.523v28.659c-1.925-.281-4.058-.848-6.246-1.905-4.479-2.163-7.237-5.405-8.762-7.743-1.382-2.121-3.6-3.621-6.084-4.115-2.495-.494-5.127.046-7.228 1.484-5.367 3.68-11.162 6.645-17.223 8.813-9.856 3.524-20.561 4.936-31.292 4.175zm63.052 95.936c-6.876 5.698-15.531 8.877-24.634 8.877s-17.758-3.179-24.634-8.877c4.384-5.048 6.934-11.585 6.934-18.629v-.281c5.543 1.953 11.497 3.027 17.7 3.027s12.157-1.074 17.7-3.027v.281c0 7.044 2.55 13.581 6.934 18.629zm32.552 209.335c.224 0 .422.15.481.365v.001l10.563 38.086c.095.242-.222.661-.482.633h-135.496c-.261.027-.58-.388-.481-.634l10.563-38.087c.06-.215.258-.365.481-.365h114.371zm-90.88-15 5.712-42.455h55.963l5.712 42.455zm274.694-79.955c0 12.407-10.094 22.5-22.5 22.5h-437c-12.406 0-22.5-10.093-22.5-22.5v-282.42c0-12.407 10.094-22.5 22.5-22.5h52.01v15h-48.01c-6.341 0-11.5 5.159-11.5 11.5v259.42c0 6.341 5.159 11.5 11.5 11.5h429c6.341 0 11.5-5.159 11.5-11.5v-199.236c5.471-.142 10.592-1.71 15-4.356zm-407.49-274.92v252.42h-44.51v-252.42zm407.49 25.897c0 8.716-7.091 15.807-15.808 15.807-8.369 0-60.695 0-69.134 0-3.456 0-6.706 1.346-9.148 3.79l-14.997 14.998v-5.849c0-7.134-5.804-12.938-12.938-12.938h-16.923c-8.716 0-15.807-7.091-15.807-15.807v-53.13c0-8.716 7.091-15.807 15.807-15.807h123.141c8.716-.001 15.807 7.09 15.807 15.806zm-26.434-19.065h-101.888c-4.143 0-7.5 3.358-7.5 7.5s3.357 7.5 7.5 7.5h101.889c4.143 0 7.5-3.358 7.5-7.5s-3.358-7.5-7.501-7.5zm0-30h-101.888c-4.143 0-7.5 3.358-7.5 7.5s3.357 7.5 7.5 7.5h101.889c4.143 0 7.5-3.358 7.5-7.5s-3.358-7.5-7.501-7.5z"/></g></svg>