<?xml version="1.0" encoding="UTF-8"?>
<svg xmlns="http://www.w3.org/2000/svg" viewBox="0 0 64 64" width="512" height="512"><g id="classroom-student-desk-chair-white_board" data-name="classroom-student-desk-chair-white board"><path d="M61,8a1,1,0,0,0,1-1V3a1,1,0,0,0-1-1H3A1,1,0,0,0,2,3V7A1,1,0,0,0,3,8H4V35H3a1,1,0,0,0-1,1v4a1,1,0,0,0,1,1H7.12l.25,2H3a1,1,0,0,0-1,1v4a1,1,0,0,0,1,1H4V62H6V49h4v2H9a1,1,0,0,0-1,1v4a1,1,0,0,0,1,1h1v5h2V57h8v5h2V57h1a1,1,0,0,0,1-1V52a1,1,0,0,0-1-1H22V49h4V62h2V49h1a1,1,0,0,0,1-1V44a1,1,0,0,0-1-1H24.63l.25-2H39.12l.25,2H35a1,1,0,0,0-1,1v4a1,1,0,0,0,1,1h1V62h2V49h4v2H41a1,1,0,0,0-1,1v4a1,1,0,0,0,1,1h1v5h2V57h8v5h2V57h1a1,1,0,0,0,1-1V52a1,1,0,0,0-1-1H54V49h4V62h2V49h1a1,1,0,0,0,1-1V44a1,1,0,0,0-1-1H56.63l.25-2H61a1,1,0,0,0,1-1V36a1,1,0,0,0-1-1H60V8ZM4,47V45H7.62l.25,2Zm0-8V37h7v1a3,3,0,0,0,.18,1Zm46-8H46a3.009,3.009,0,0,0-3,3v1H21V34a3.009,3.009,0,0,0-3-3H14a3.009,3.009,0,0,0-3,3v1H6V8H58V35H53V34A3.009,3.009,0,0,0,50,31Zm1,3v4a1,1,0,0,1-1,1H46a1,1,0,0,1-1-1V34a1,1,0,0,1,1-1h4A1,1,0,0,1,51,34ZM19,34v4a1,1,0,0,1-1,1H14a1,1,0,0,1-1-1V34a1,1,0,0,1,1-1h4A1,1,0,0,1,19,34Zm3,21H10V53H22ZM12,51V49h8v2Zm10.12-4H9.88l-.75-6H22.87ZM28,45v2H24.13l.25-2Zm8,2V45h3.62l.25,2ZM20.82,39A3,3,0,0,0,21,38V37H43v1a3,3,0,0,0,.18,1ZM54,55H42V53H54ZM44,51V49h8v2Zm10.12-4H41.88l-.75-6H54.87ZM60,45v2H56.13l.25-2Zm0-6H52.82A3,3,0,0,0,53,38V37h7ZM4,6V4H60V6Z"/></g></svg>
