<svg id="Capa_1" enable-background="new 0 0 512 512" height="512" viewBox="0 0 512 512" width="512" xmlns="http://www.w3.org/2000/svg"><g><path d="m169.328 370.995c13.349-12.917 21.672-30.997 21.672-50.995 0-39.149-31.851-71-71-71s-71 31.851-71 71c0 19.934 8.269 37.963 21.543 50.872-41.565 17.461-70.543 56.223-70.543 101.128 0 8.284 6.716 15 15 15s15-6.716 15-15c0-44.663 40.374-81 90-81 49.075 0 89 36.337 89 81 0 8.284 6.716 15 15 15s15-6.716 15-15c0-44.802-28.605-83.486-69.672-101.005zm-90.328-50.995c0-22.607 18.393-41 41-41s41 18.393 41 41-18.393 41-41 41-41-18.393-41-41z"/><path d="m273 248c0 8.284 6.716 15 15 15s15-6.716 15-15c0-44.663 39.925-81 89-81 49.626 0 90 36.337 90 81 0 8.284 6.716 15 15 15s15-6.716 15-15c0-44.905-28.978-83.667-70.543-101.128 13.274-12.909 21.543-30.938 21.543-50.872 0-39.149-31.851-71-71-71s-71 31.851-71 71c0 19.998 8.323 38.078 21.672 50.995-41.067 17.519-69.672 56.203-69.672 101.005zm78-152c0-22.607 18.393-41 41-41s41 18.393 41 41-18.393 41-41 41-41-18.393-41-41z"/><path d="m63 215h146c16.542 0 30-13.458 30-30v-33c1.281-1.29 10.866-12.027 38.067-42.951 19.653-19.653 9.937-47.325-14.713-51.807-3.096-.565 10.244-.242-199.354-.242-16.542 0-30 13.458-30 30v98c0 16.542 13.458 30 30 30zm0-128c116.705 0 176.988.021 193.675.021-1.874 1.901-12.444 13.026-38.157 42.003-6.145 6.362-9.518 14.42-9.518 22.976v33h-146z"/><path d="m359.67 363.529c-6.892 4.656-8.731 13.839-4.14 20.801 4.318 6.57 13.565 8.911 20.8 4.14 6.863-4.631 8.754-13.803 4.14-20.8-4.576-6.798-13.725-8.79-20.8-4.141z"/><path d="m417.29 378.93c2.735 13.192 19.935 16.424 27.18 5.4 7.229-10.96-1.986-25.548-15.4-23.04-8.123 1.687-13.332 9.355-11.78 17.64z"/><path d="m512 425v-98c0-16.542-13.458-30-30-30-246.818 0-229.469-.285-232.354.242-24.65 4.482-34.366 32.153-14.713 51.807 27.201 30.924 36.786 41.661 38.067 42.951v33c0 16.542 13.458 30 30 30h179c16.542 0 30-13.458 30-30zm-30 0h-179v-33c0-8.556-3.374-16.614-9.518-22.976-25.713-28.977-36.283-40.102-38.157-42.003 16.686 0 109.97-.021 226.675-.021z"/></g></svg>