<?xml version="1.0" encoding="UTF-8"?>
<svg xmlns="http://www.w3.org/2000/svg" id="Outline" viewBox="0 0 512 512" width="512" height="512"><path d="M464,240H440.61a112,112,0,0,0-212.393,9.519,105.016,105.016,0,0,0-22.548-14.976q-1.008-.951-2.108-1.825a88.127,88.127,0,0,0,25.158-40.886A32.483,32.483,0,0,0,232,192a31.975,31.975,0,0,0,24-53.132V136a126.009,126.009,0,0,0-4.344-32.884,8.2,8.2,0,0,0,1.154-.72,47.994,47.994,0,1,0-60.5-74.427A103.859,103.859,0,0,0,144,16c-29.479,0-57.478,12.548-78.837,35.333A123.218,123.218,0,0,0,32,136v2.868A31.975,31.975,0,0,0,56,192a32.234,32.234,0,0,0,3.28-.173,88.132,88.132,0,0,0,25.159,40.891q-1.113.888-2.136,1.853A104.333,104.333,0,0,0,24,328V488a8,8,0,0,0,8,8H448a8,8,0,0,0,8-8V464a104.024,104.024,0,0,0-55.616-92.08,87.982,87.982,0,0,0,20.335-36.088A32.483,32.483,0,0,0,424,336,31.976,31.976,0,0,0,451.7,288H464a24,24,0,0,0,0-48ZM336,184a96.125,96.125,0,0,1,95.74,88.952A31.917,31.917,0,0,0,424,272q-1.383,0-2.753.117C416.871,263.6,405.869,248,384,248H368a32,32,0,0,0-64,0H288c-21.875,0-32.876,15.612-37.251,24.124-.91-.077-1.826-.124-2.749-.124a31.917,31.917,0,0,0-7.74.952A96.125,96.125,0,0,1,336,184ZM248,288v24c0,2.69.128,5.35.366,7.979-.123,0-.243.021-.366.021a16,16,0,0,1,0-32Zm72-40a16,16,0,0,1,32,0Zm36.54,16c-2.605,5.321-8.256,11.987-20.541,15.693-12.376-3.724-18.022-10.364-20.6-15.693Zm48.977,12.755a54.47,54.47,0,0,1-16,3.082A126.4,126.4,0,0,0,381.724,264H384C395.391,264,402.1,271.3,405.517,276.755ZM290.277,264a126.29,126.29,0,0,0-7.793,15.837,54.47,54.47,0,0,1-16-3.082C269.9,271.3,276.609,264,288,264Zm-90.581-.767C197.122,279.493,182.269,288,168.927,288a19.556,19.556,0,0,1-10.037-2.554c14.2-5.369,22.964-18.991,24.536-38.788q3.389-1.706,6.605-3.688C201.037,248.443,200.259,259.677,199.7,263.233ZM144,272c-12.033,0-19.527-6.343-22.378-18.887a88.174,88.174,0,0,0,44.76,0C163.534,265.657,156.039,272,144,272Zm88-96c-.123,0-.243-.015-.366-.018.238-2.63.366-5.291.366-7.982V144a16,16,0,0,1,0,32ZM224,32a32.036,32.036,0,0,1,32,32,31.713,31.713,0,0,1-9.867,23.117,121.884,121.884,0,0,0-23.3-35.784,118.4,118.4,0,0,0-16.051-14.3A31.969,31.969,0,0,1,224,32ZM76.837,62.275C95.139,42.752,118.991,32,144,32s48.861,10.752,67.163,30.275a106.955,106.955,0,0,1,28.609,66.684A31.971,31.971,0,0,0,232,128c-48.27,0-55.817-39.663-56.108-41.315A8,8,0,0,0,160,88c0,19.4-26.9,29.272-49.469,34.133C83.673,127.918,56.271,128,56,128h0a31.961,31.961,0,0,0-7.77.959A106.955,106.955,0,0,1,76.837,62.275ZM56,176a16,16,0,0,1,0-32v24c0,2.692.128,5.354.366,7.985C56.244,175.987,56.123,176,56,176Zm16-8V143.379a295.887,295.887,0,0,0,41.676-5.557c30.164-6.464,46.373-16.737,54.626-27.482a69.33,69.33,0,0,0,4.3,6.46c7.635,10.181,21.036,21.958,43.4,25.862V168a72,72,0,0,1-144,0Zm32.586,78.664c1.577,19.778,10.325,33.4,24.511,38.774A19.51,19.51,0,0,1,119.073,288c-13.341,0-28.194-8.507-30.768-24.766-.564-3.556-1.342-14.791,9.664-20.263Q101.19,244.954,104.586,246.664ZM40,400H56v80H40Zm32,80V360a8,8,0,0,0-16,0v24H40V328a88.306,88.306,0,0,1,32-67.86,41.665,41.665,0,0,0,.5,5.6C75.513,284.752,92.477,304,119.073,304A35.256,35.256,0,0,0,136,299.953V480Zm80-40V299.953A35.256,35.256,0,0,0,168.927,304c26.6,0,43.561-19.249,46.572-38.265a41.709,41.709,0,0,0,.5-5.6,88.835,88.835,0,0,1,8.613,8.126A112.709,112.709,0,0,0,224,280v2.868A31.975,31.975,0,0,0,248,336a32.726,32.726,0,0,0,3.28-.173,87.975,87.975,0,0,0,20.337,36.094A103.446,103.446,0,0,0,253.523,384H232V360a8,8,0,0,0-16,0V480H152Zm80-40h6.038c-1.11,1.422-2.2,2.864-3.24,4.349-.974,1.388-1.9,2.8-2.8,4.228Zm192.1,13.538A87.433,87.433,0,0,1,440,464v16H232V464a88,88,0,0,1,52.631-80.593q1.679,1.211,3.413,2.342a47.987,47.987,0,0,0,95.912,0q1.734-1.132,3.413-2.343A87.868,87.868,0,0,1,424.1,413.538ZM305.837,394.674a88.075,88.075,0,0,0,60.326,0,31.994,31.994,0,0,1-60.326,0ZM336,384a72.081,72.081,0,0,1-72-72V292.85A81.812,81.812,0,0,0,288,296a8.019,8.019,0,0,0,7.642-5.633,98.714,98.714,0,0,1,7.225-16.124c4.555,7.562,13.562,16.935,31.12,21.5a7.982,7.982,0,0,0,4.026,0c16.258-4.226,25.827-12.888,31.1-21.53a98.817,98.817,0,0,1,7.237,16.141A8,8,0,0,0,384,296a81.812,81.812,0,0,0,24-3.15V312A72.081,72.081,0,0,1,336,384Zm88-64c-.123,0-.243-.015-.366-.018.238-2.63.366-5.291.366-7.982V288a16,16,0,0,1,0,32Zm40-48H447.711a111.582,111.582,0,0,0-2.308-16H464a8,8,0,0,1,0,16Z"/><circle cx="304" cy="312" r="8"/><circle cx="368" cy="312" r="8"/><circle cx="112" cy="168" r="8"/><circle cx="176" cy="168" r="8"/><circle cx="160" cy="344" r="8"/><circle cx="160" cy="392" r="8"/><circle cx="160" cy="440" r="8"/><path d="M354.343,338.343c-.057.057-6.2,5.657-18.343,5.657s-18.286-5.6-18.343-5.657a8,8,0,0,0-11.314,11.314C307.4,350.715,317.228,360,336,360h0c18.771,0,28.6-9.285,29.657-10.343a8,8,0,0,0-11.314-11.314Z"/><path d="M114.343,194.343a8,8,0,0,0,0,11.313C115.4,206.715,125.228,216,144,216h0c18.771,0,28.6-9.285,29.657-10.344a8,8,0,0,0-11.314-11.313c-.057.057-6.2,5.657-18.343,5.657s-18.286-5.6-18.343-5.657A8,8,0,0,0,114.343,194.343Z"/></svg>
